<svg id="Capa_1" data-name="Capa 1" xmlns="http://www.w3.org/2000/svg" viewBox="0 0 1842 1028.699">
  <defs>
    <style>
      .cls-1 {
        fill: #27a1b9;
      }

      .cls-2 {
        fill: #1f2f51;
      }
    </style>
  </defs>
  <title>LogoCrese</title>
  <g>
    <g>
      <g>
        <path class="cls-1" d="M383.509,897.588s-93.23,457.057,816.449-51.882l25.146,8.244S893.81,1148.731,474.348,1154.074c0,0-384.729,21.374-138.93-312.593Z" transform="translate(-32 -125.651)"/>
        <path class="cls-1" d="M1469.585,383.987s102.374-455.1-817.325,35.5l-24.976-8.746s337.138-288.08,756.622-285.014c0,0,385.081-13.657,132.636,315.315Z" transform="translate(-32 -125.651)"/>
      </g>
      <path class="cls-2" d="M234.364,589.9s-3.117-55.216-56.552-53.435c0,0-38.74.891-53.435,15.585,0,0-26.272,24.936-27.608,59.669,0,0-5.343,69.02-1.336,72.582,0,0-.891,24.046,19.147,46.31,0,0,22.264,20.929,48.536,18.257,0,0,30.725,0,42.748-10.687,0,0,20.483-12.023,24.491-44.084,0,0,.891-18.257,20.929-16.921h24.491s16.476-2.672,16.03,16.03c0,0-4.9,40.967-23.155,61.9,0,0-27.608,35.178-61,42.3,0,0-52.989,13.8-85.5,2.672,0,0-73.027-12.468-88.612-107.76,0,0-9.8-98.854,20.038-145.609,0,0,32.951-72.137,127.8-66.348,0,0,76.59-.445,101.081,57.442,0,0,9.351,15.14,13.359,45.865,0,0,4.9,20.929-15.14,23.6l-29.834-.445S238.372,611.715,234.364,589.9Z" transform="translate(-32 -125.651)"/>
      <path class="cls-2" d="M694.786,763.558l-51.208-86.386c-8.46-16.921,7.125-23.155,7.125-23.155a79.92,79.92,0,0,0,17.366-14.695c43.638-57,17.812-102.862,17.812-102.862-22.265-60.559-101.526-57.442-101.526-57.442l-107.315-.445c-17.366,1.781-17.366,16.03-17.366,16.03l-12.023,283.2c2.226,16.476,13.359,15.585,13.359,15.585h35.178c14.249-2.226,13.359-16.03,13.359-16.03l3.562-84.16c-1.336-13.359,15.585-15.585,15.585-15.585h36.068c8.906-.891,13.359,8.46,13.359,8.46l56.552,96.182c7.57,12.468,16.921,11.578,16.921,11.578l34.288-1.336C704.583,785.823,694.786,763.558,694.786,763.558ZM591.034,621.066l-56.106.445s-16.921,4.008-18.7-13.8l2.672-58.778s3.562-13.359,14.249-14.249l49.427-.445s48.091,1.336,48.537,38.295C631.11,572.529,636.9,617.058,591.034,621.066Z" transform="translate(-32 -125.651)"/>
      <path class="cls-2" d="M852.858,493.713c-.622-3.309-2.733-12.295,8.25-15.226a12.04,12.04,0,0,1,3.133-.356l197.458.442s12.468-.891,11.578,9.8l-.891,33.4s.445,12.913-11.132,12.023H921.877s-12.023,0-12.023,12.468l-1.781,48.091s-.891,9.351,10.242,10.687l116.22-.445s16.03-1.336,13.359,11.578L1047,649.119s0,12.023-9.8,10.687l-120.166-.435a12.976,12.976,0,0,0-8.91,3.27c-2.3,2.133-4.222,5.559-3.62,10.969l-2.191,49.511c-.021.475-.068.941-.131,1.412-.381,2.868-1.172,14.927,12.563,14.534l138.485-.891s11.578-1.781,10.242,13.8l-.445,29.389s1.336,11.578-10.242,12.468H849.741s-13.453,3.038-10.8-14.45a13.075,13.075,0,0,0,.141-1.368l12.884-288.76C852.013,488.216,853.051,494.741,852.858,493.713Z" transform="translate(-32 -125.651)"/>
      <path class="cls-2" d="M1383.242,582.326s-2.226,11.132,8.906,14.249l39.185.445s13.359,1.336,13.8-15.14c0,0,2.226-21.819-5.789-40.521,0,0-13.8-47.2-75.254-59.669,0,0-24.491-8.906-77.48,1.336,0,0-78.816,15.14-81.043,82.378,0,0-10.687,57,62.786,85.5,0,0,51.208,16.476,81.488,26.272,0,0,58.333,21.374,14.695,56.106,0,0-25.827,24.491-87.722,4.008,0,0-21.374-4.453-26.717-34.733,0,0,5.789-20.929-12.913-20.483h-32.506s-15.585-2.226-15.14,18.257c0,0-3.562,65.9,61.9,89.058,0,0,67.239,32.951,146.945-9.351,0,0,61.9-28.944,36.959-105.979,0,0-15.585-46.755-99.745-63.231,0,0-76.144-12.913-69.465-47.2,0,0,4.9-31.17,64.567-30.28,0,0,52.544,6.679,51.208,34.287Z" transform="translate(-32 -125.651)"/>
      <path class="cls-2" d="M1604.976,496.386c-.622-3.309-2.733-12.295,8.25-15.226a12.04,12.04,0,0,1,3.133-.356l197.458.442s12.468-.891,11.578,9.8l-.891,33.4s.445,12.913-11.132,12.023H1674s-12.023,0-12.023,12.468l-1.781,48.091s-.891,9.351,10.242,10.687l116.22-.445s16.03-1.336,13.359,11.578l-.891,32.951s0,12.023-9.8,10.687l-120.166-.435a12.976,12.976,0,0,0-8.91,3.27c-2.3,2.133-4.222,5.559-3.62,10.969l-2.191,49.511c-.021.475-.068.941-.131,1.412-.381,2.868-1.172,14.927,12.563,14.534l138.485-.891s11.578-1.781,10.242,13.8l-.445,29.389s1.336,11.578-10.242,12.468H1601.859s-13.453,3.038-10.8-14.45a13.075,13.075,0,0,0,.141-1.368l12.884-288.76C1604.132,490.888,1605.17,497.413,1604.976,496.386Z" transform="translate(-32 -125.651)"/>
    </g>
    <g>
      <path class="cls-2" d="M1277.886,863.385H1259.81V856.86h44v6.525h-18.167v52.908h-7.76Z" transform="translate(-32 -125.651)"/>
      <path class="cls-2" d="M1358.831,885.959c0,20.458-12.435,31.3-27.6,31.3-15.7,0-26.72-12.169-26.72-30.159,0-18.872,11.728-31.215,27.6-31.215C1348.337,855.889,1358.831,868.322,1358.831,885.959Zm-46.119.971c0,12.7,6.878,24.072,18.958,24.072,12.169,0,19.049-11.2,19.049-24.69,0-11.817-6.173-24.163-18.96-24.163C1319.063,862.149,1312.712,873.879,1312.712,886.93Z" transform="translate(-32 -125.651)"/>
      <path class="cls-2" d="M1368.787,857.653a109.648,109.648,0,0,1,16.312-1.234c11.021,0,18.869,2.557,24.072,7.407,5.291,4.85,8.378,11.728,8.378,21.34,0,9.7-3,17.635-8.553,23.1-5.555,5.557-14.726,8.555-26.276,8.555a123.108,123.108,0,0,1-13.933-.707Zm7.671,52.555a48.507,48.507,0,0,0,7.76.441c16.4,0,25.308-9.171,25.308-25.22.089-14.019-7.848-22.926-24.074-22.926a43.576,43.576,0,0,0-8.994.793Z" transform="translate(-32 -125.651)"/>
      <path class="cls-2" d="M1478.3,885.959c0,20.458-12.435,31.3-27.6,31.3-15.694,0-26.72-12.169-26.72-30.159,0-18.872,11.731-31.215,27.6-31.215C1467.8,855.889,1478.3,868.322,1478.3,885.959Zm-46.119.971c0,12.7,6.878,24.072,18.958,24.072,12.169,0,19.047-11.2,19.047-24.69,0-11.817-6.173-24.163-18.958-24.163C1438.526,862.149,1432.178,873.879,1432.178,886.93Z" transform="translate(-32 -125.651)"/>
    </g>
    <g>
      <path class="cls-2" d="M1279.668,944.427h-18.079V937.9h44.005v6.525h-18.167v52.908h-7.76Z" transform="translate(-32 -125.651)"/>
      <path class="cls-2" d="M1319.871,937.9v59.433H1312.2V937.9Z" transform="translate(-32 -125.651)"/>
      <path class="cls-2" d="M1364.044,969.469h-23.1V990.9h25.747v6.437h-33.418V937.9h32.1v6.437h-24.427v18.783h23.1Z" transform="translate(-32 -125.651)"/>
      <path class="cls-2" d="M1376.648,997.335V937.9h8.378l19.047,30.07a168.4,168.4,0,0,1,10.671,19.31l.175-.086c-.707-7.937-.882-15.167-.882-24.427V937.9h7.23v59.433h-7.76l-18.869-30.156a188.232,188.232,0,0,1-11.112-19.842l-.264.089c.441,7.5.616,14.637.616,24.515v25.394Z" transform="translate(-32 -125.651)"/>
      <path class="cls-2" d="M1465.434,969.469h-23.1V990.9h25.747v6.437h-33.418V937.9h32.1v6.437h-24.427v18.783h23.1Z" transform="translate(-32 -125.651)"/>
      <path class="cls-2" d="M1495.671,987.989a27.194,27.194,0,0,0,13.758,3.88c7.846,0,12.43-4.146,12.43-10.142,0-5.555-3.173-8.73-11.2-11.817-9.7-3.439-15.7-8.464-15.7-16.842,0-9.257,7.673-16.137,19.224-16.137,6.084,0,10.494,1.412,13.139,2.912l-2.116,6.259a23.692,23.692,0,0,0-11.287-2.82c-8.112,0-11.2,4.85-11.2,8.9,0,5.555,3.614,8.289,11.817,11.464,10.05,3.88,15.164,8.73,15.164,17.46,0,9.168-6.789,17.105-20.81,17.105-5.73,0-11.991-1.675-15.164-3.791Z" transform="translate(-32 -125.651)"/>
      <path class="cls-2" d="M1590.987,967c0,20.458-12.432,31.3-27.6,31.3-15.7,0-26.72-12.169-26.72-30.159,0-18.869,11.728-31.215,27.6-31.215C1580.493,936.931,1590.987,949.366,1590.987,967Zm-46.116.971c0,12.7,6.878,24.072,18.958,24.072,12.169,0,19.047-11.2,19.047-24.69,0-11.814-6.173-24.16-18.96-24.16C1551.216,943.193,1544.871,954.921,1544.871,967.972Z" transform="translate(-32 -125.651)"/>
      <path class="cls-2" d="M1600.943,937.9h7.671v53h25.394v6.437h-33.065Z" transform="translate(-32 -125.651)"/>
      <path class="cls-2" d="M1647.054,937.9v35.184c0,13.314,5.907,18.958,13.844,18.958,8.819,0,14.462-5.818,14.462-18.958V937.9h7.76v34.654c0,18.253-9.612,25.749-22.485,25.749-12.169,0-21.34-6.966-21.34-25.394V937.9Z" transform="translate(-32 -125.651)"/>
      <path class="cls-2" d="M1737.958,995.4c-2.823,1.409-8.467,2.82-15.7,2.82-16.753,0-29.363-10.58-29.363-30.07,0-18.606,12.61-31.215,31.038-31.215,7.407,0,12.08,1.589,14.11,2.646l-1.852,6.262a27.933,27.933,0,0,0-11.991-2.468c-13.933,0-23.192,8.9-23.192,24.513,0,14.551,8.378,23.9,22.838,23.9a30.737,30.737,0,0,0,12.524-2.468Z" transform="translate(-32 -125.651)"/>
      <path class="cls-2" d="M1755.233,937.9v59.433h-7.671V937.9Z" transform="translate(-32 -125.651)"/>
      <path class="cls-2" d="M1819.425,967c0,20.458-12.435,31.3-27.6,31.3-15.7,0-26.717-12.169-26.717-30.159,0-18.869,11.728-31.215,27.6-31.215C1808.931,936.931,1819.425,949.366,1819.425,967Zm-46.119.971c0,12.7,6.878,24.072,18.958,24.072,12.169,0,19.047-11.2,19.047-24.69,0-11.814-6.173-24.16-18.958-24.16C1779.654,943.193,1773.307,954.921,1773.307,967.972Zm31.831-43.737-11.2,10.228h-6.348l8.2-10.228Z" transform="translate(-32 -125.651)"/>
      <path class="cls-2" d="M1829.382,997.335V937.9h8.375l19.047,30.07a168.4,168.4,0,0,1,10.671,19.31l.175-.086c-.7-7.937-.882-15.167-.882-24.427V937.9H1874v59.433h-7.76l-18.872-30.156a188.665,188.665,0,0,1-11.11-19.842l-.266.089c.441,7.5.618,14.637.618,24.515v25.394Z" transform="translate(-32 -125.651)"/>
    </g>
  </g>
</svg>
